<svg xmlns="http://www.w3.org/2000/svg" xmlns:xlink="http://www.w3.org/1999/xlink" width="500" zoomAndPan="magnify" viewBox="0 0 375 374.999991" height="500" preserveAspectRatio="xMidYMid meet" version="1.0"><defs><clipPath id="id1"><path d="M 8 41.558594 L 365 41.558594 L 365 320 L 8 320 Z M 8 41.558594 " clip-rule="nonzero"/></clipPath></defs><g clip-path="url(#id1)"><path fill="#f3a7a8" d="M 350.691406 177.183594 L 261.980469 153.691406 L 285.464844 64.945312 C 287.132812 58.664062 285.410156 51.972656 280.949219 47.265625 C 275.007812 40.515625 265.542969 40.664062 257.539062 43.046875 C 167.871094 61.683594 92.675781 119.210938 51.234375 200.882812 L 10.058594 282.035156 C 4.023438 293.132812 11.96875 308.039062 24.582031 309.148438 C 49.585938 311.210938 103.117188 320.039062 127.445312 319.140625 C 217.730469 319.140625 302.953125 278.695312 360.511719 207.070312 C 369.019531 197.039062 363.527344 180.183594 350.691406 177.183594 Z M 350.691406 177.183594 " fill-opacity="1" fill-rule="nonzero"/></g></svg>