<svg xmlns="http://www.w3.org/2000/svg" xmlns:xlink="http://www.w3.org/1999/xlink" width="500" zoomAndPan="magnify" viewBox="0 0 375 374.999991" height="500" preserveAspectRatio="xMidYMid meet" version="1.0"><defs><g/><clipPath id="id1"><path d="M 0.105469 0 L 346.402344 0 L 346.402344 348.75 L 0.105469 348.75 Z M 0.105469 0 " clip-rule="nonzero"/></clipPath><clipPath id="id2"><path d="M 131.25 151.679688 L 243.75 151.679688 L 243.75 235.679688 L 131.25 235.679688 Z M 131.25 151.679688 " clip-rule="nonzero"/></clipPath></defs><g clip-path="url(#id1)"><path fill="#f8a3c1" d="M 346.390625 121.898438 C 346.621094 129.582031 344.164062 137.71875 340.78125 145.320312 C 332.902344 163.046875 319.328125 178.972656 303.390625 191.191406 C 295.527344 197.21875 287.296875 202.210938 278.832031 206.285156 C 291.910156 212.722656 304.171875 220.722656 315.109375 230.207031 C 328.453125 241.785156 341.511719 256.433594 344.246094 272.347656 C 345.265625 278.261719 345.347656 286.742188 340.210938 290.414062 C 335.875 293.515625 329.4375 291.46875 324.261719 289.207031 C 320.699219 287.648438 314.996094 284.078125 311.175781 285.070312 C 304.707031 286.753906 313.210938 291.863281 316.136719 293.769531 C 320.234375 296.441406 325.652344 299.351562 326.902344 303.953125 C 328.5 309.839844 322.085938 313.707031 317.304688 315.804688 C 310.269531 318.894531 301.8125 319.652344 293.503906 319.355469 C 274.136719 318.671875 254.300781 312.019531 237.023438 301.789062 C 216.554688 289.671875 200.769531 273.34375 189.105469 255.125 C 182.960938 275.601562 172.4375 295.402344 156.378906 312.550781 C 142.648438 327.207031 125.464844 339.148438 107.0625 345.230469 C 99.167969 347.84375 90.835938 349.480469 83.21875 348.484375 C 78.042969 347.8125 70.800781 345.894531 70.6875 339.792969 C 70.601562 335.023438 74.988281 330.714844 78.179688 327.003906 C 80.457031 324.355469 87.191406 317.066406 80.511719 317.265625 C 76.570312 317.378906 72.089844 322.40625 69.105469 324.894531 C 64.769531 328.515625 59.160156 332.289062 54.128906 330.523438 C 48.171875 328.4375 45.878906 320.265625 45.203125 314.308594 C 43.386719 298.265625 51.828125 280.542969 61.402344 265.691406 C 69.253906 253.523438 78.789062 242.410156 89.546875 232.566406 C 80.28125 231.027344 70.980469 228.535156 61.75 224.953125 C 43.035156 217.683594 25.546875 206.195312 13.03125 191.386719 C 7.660156 185.03125 3.023438 177.90625 1.101562 170.464844 C -0.210938 165.40625 -1.140625 157.96875 4.46875 155.585938 C 8.855469 153.71875 14.488281 156.183594 19.121094 157.757812 C 22.421875 158.878906 31.699219 162.40625 29.019531 156.28125 C 27.4375 152.660156 21.105469 150.386719 17.679688 148.542969 C 12.703125 145.867188 7.117188 142.074219 6.867188 136.746094 C 6.574219 130.433594 13.285156 125.25 18.558594 122.394531 C 32.742188 114.710938 52.320312 115.917969 69.65625 119.257812 C 91.367188 123.441406 112.269531 132.171875 131.011719 144.273438 C 131.796875 144.78125 132.550781 145.320312 133.332031 145.839844 C 124.160156 129.019531 117.898438 110.015625 116.148438 89.160156 C 114.46875 69.136719 117.117188 48.371094 124.925781 30.613281 C 128.277344 22.996094 132.640625 15.707031 138.476562 10.710938 C 142.449219 7.3125 148.71875 3.214844 153.316406 7.214844 C 156.914062 10.34375 157.171875 16.492188 157.789062 21.347656 C 158.230469 24.816406 159.128906 34.703125 163.457031 29.605469 C 166.011719 26.59375 165.28125 19.902344 165.429688 16.015625 C 165.652344 10.367188 166.605469 3.671875 171.285156 1.113281 C 176.824219 -1.917969 184.417969 1.847656 189.292969 5.335938 C 202.414062 14.730469 209.910156 32.871094 214.515625 49.933594 C 220.277344 71.296875 221.609375 93.929688 218.953125 116.097656 C 218.382812 120.894531 217.636719 125.660156 216.777344 130.386719 C 230.898438 114.71875 247.664062 101.476562 266.257812 91.933594 C 281.96875 83.871094 300.429688 77.230469 316.195312 80.636719 C 322.054688 81.902344 329.945312 85 331.429688 91.136719 C 332.679688 96.324219 328.375 101.53125 324.34375 105.492188 C 321.570312 108.21875 316.128906 112.179688 315.621094 116.097656 C 314.765625 122.726562 322.679688 116.746094 325.535156 114.742188 C 329.542969 111.933594 334.265625 107.992188 338.996094 108.554688 C 345.046875 109.269531 346.234375 116.675781 346.390625 121.898438 " fill-opacity="1" fill-rule="nonzero"/></g><path fill="#ffc5d3" d="M 290.449219 147.929688 C 290.601562 152.988281 288.984375 158.34375 286.761719 163.347656 C 281.574219 175.015625 272.640625 185.496094 262.148438 193.539062 C 256.972656 197.503906 251.558594 200.792969 245.984375 203.472656 C 254.589844 207.710938 262.664062 212.976562 269.863281 219.21875 C 278.644531 226.835938 287.238281 236.484375 289.039062 246.953125 C 289.707031 250.847656 289.761719 256.429688 286.382812 258.847656 C 283.527344 260.890625 279.292969 259.539062 275.882812 258.050781 C 273.539062 257.027344 269.789062 254.675781 267.273438 255.328125 C 263.015625 256.4375 268.613281 259.800781 270.539062 261.054688 C 273.234375 262.8125 276.800781 264.726562 277.621094 267.753906 C 278.675781 271.628906 274.453125 274.179688 271.304688 275.558594 C 266.675781 277.589844 261.109375 278.089844 255.636719 277.894531 C 242.894531 277.445312 229.835938 273.066406 218.464844 266.332031 C 204.992188 258.359375 194.605469 247.609375 186.925781 235.621094 C 182.882812 249.09375 175.957031 262.132812 165.386719 273.414062 C 156.351562 283.0625 145.039062 290.921875 132.929688 294.925781 C 127.734375 296.644531 122.246094 297.722656 117.234375 297.066406 C 113.828125 296.621094 109.0625 295.359375 108.988281 291.347656 C 108.929688 288.207031 111.820312 285.371094 113.917969 282.929688 C 115.417969 281.1875 119.847656 276.386719 115.453125 276.519531 C 112.859375 276.59375 109.910156 279.902344 107.945312 281.542969 C 105.089844 283.925781 101.398438 286.40625 98.089844 285.246094 C 94.167969 283.871094 92.660156 278.496094 92.214844 274.574219 C 91.015625 264.011719 96.570312 252.347656 102.878906 242.574219 C 108.042969 234.566406 114.320312 227.25 121.398438 220.773438 C 115.300781 219.757812 109.179688 218.117188 103.105469 215.761719 C 90.785156 210.976562 79.277344 203.414062 71.039062 193.664062 C 67.503906 189.484375 64.453125 184.796875 63.1875 179.898438 C 62.324219 176.566406 61.710938 171.671875 65.40625 170.101562 C 68.289062 168.875 72 170.496094 75.046875 171.535156 C 77.222656 172.269531 83.324219 174.59375 81.5625 170.5625 C 80.523438 168.179688 76.355469 166.679688 74.097656 165.46875 C 70.824219 163.707031 67.144531 161.210938 66.984375 157.703125 C 66.789062 153.550781 71.203125 150.140625 74.675781 148.257812 C 84.011719 143.199219 96.898438 143.996094 108.308594 146.195312 C 122.59375 148.949219 136.355469 154.691406 148.691406 162.660156 C 149.207031 162.992188 149.707031 163.347656 150.21875 163.691406 C 144.183594 152.621094 140.0625 140.109375 138.910156 126.382812 C 137.804688 113.207031 139.546875 99.535156 144.6875 87.851562 C 146.890625 82.839844 149.761719 78.039062 153.605469 74.75 C 156.21875 72.515625 160.34375 69.816406 163.375 72.449219 C 165.738281 74.507812 165.910156 78.554688 166.316406 81.753906 C 166.605469 84.03125 167.199219 90.542969 170.046875 87.1875 C 171.726562 85.203125 171.25 80.800781 171.34375 78.242188 C 171.492188 74.523438 172.117188 70.117188 175.199219 68.433594 C 178.84375 66.4375 183.84375 68.914062 187.054688 71.210938 C 195.6875 77.394531 200.621094 89.335938 203.652344 100.5625 C 207.445312 114.628906 208.320312 129.523438 206.574219 144.113281 C 206.199219 147.273438 205.707031 150.40625 205.140625 153.519531 C 214.433594 143.203125 225.46875 134.492188 237.710938 128.210938 C 248.050781 122.902344 260.199219 118.53125 270.574219 120.773438 C 274.433594 121.605469 279.625 123.644531 280.601562 127.683594 C 281.429688 131.097656 278.59375 134.527344 275.9375 137.132812 C 274.113281 138.925781 270.53125 141.535156 270.199219 144.113281 C 269.632812 148.480469 274.84375 144.539062 276.722656 143.222656 C 279.363281 141.375 282.46875 138.777344 285.582031 139.148438 C 289.566406 139.621094 290.34375 144.492188 290.449219 147.929688 " fill-opacity="1" fill-rule="nonzero"/><path fill="#ffffff" d="M 204.226562 168.941406 C 200.167969 167.972656 196.097656 170.476562 195.128906 174.535156 C 194.335938 177.867188 195.875 181.199219 198.691406 182.832031 C 196.394531 190.984375 192.148438 198.382812 186.132812 204.730469 C 184.324219 206.636719 187.265625 209.441406 189.066406 207.542969 C 195.585938 200.664062 200.113281 192.652344 202.574219 183.839844 C 205.949219 183.796875 208.996094 181.484375 209.816406 178.046875 C 210.785156 173.984375 208.28125 169.910156 204.226562 168.941406 Z M 172.933594 200.1875 C 166.488281 201.765625 160.015625 201.78125 153.78125 200.222656 C 153.769531 197.753906 152.152344 195.480469 149.664062 194.75 C 146.625 193.859375 143.441406 195.601562 142.550781 198.644531 C 141.664062 201.683594 143.402344 204.871094 146.441406 205.761719 C 149.011719 206.515625 151.683594 205.378906 152.984375 203.164062 C 159.714844 204.859375 166.695312 204.890625 173.679688 203.183594 C 175.605469 202.710938 174.867188 199.710938 172.933594 200.1875 Z M 168.5 171.96875 C 171.503906 170.59375 173.390625 167.367188 172.90625 163.921875 C 172.320312 159.722656 168.441406 156.789062 164.246094 157.375 C 160.046875 157.964844 157.121094 161.847656 157.707031 166.046875 C 158.199219 169.609375 161.0625 172.242188 164.472656 172.613281 C 166.113281 181.769531 169.917969 190.316406 175.851562 197.910156 C 177.484375 200.003906 180.734375 197.453125 179.09375 195.351562 C 173.617188 188.339844 170.035156 180.441406 168.5 171.96875 Z M 184.773438 186.914062 C 185.628906 189.441406 181.71875 190.777344 180.863281 188.257812 C 177.773438 179.128906 177.003906 169.800781 178.476562 160.621094 C 175.378906 159.140625 173.550781 155.707031 174.257812 152.183594 C 175.089844 148.023438 179.136719 145.332031 183.289062 146.160156 C 187.445312 146.996094 190.140625 151.046875 189.304688 155.203125 C 188.625 158.617188 185.78125 161.035156 182.492188 161.34375 C 181.144531 169.847656 181.917969 178.488281 184.773438 186.914062 " fill-opacity="1" fill-rule="nonzero"/><g clip-path="url(#id2)"><path fill="#ffc5d3" d="M 187.5 151.679688 C 156.433594 151.679688 131.25 170.484375 131.25 193.679688 C 131.25 216.875 156.433594 235.679688 187.5 235.679688 C 218.566406 235.679688 243.75 216.875 243.75 193.679688 C 243.75 170.484375 218.566406 151.679688 187.5 151.679688 " fill-opacity="1" fill-rule="nonzero"/></g><g fill="#1c3f56" fill-opacity="1"><g transform="translate(119.964343, 249.217498)"><g><path d="M 69.289062 2.234375 C 105.691406 2.234375 128.839844 -10.695312 128.839844 -32.089844 C 128.839844 -77.75 33.847656 -56.515625 33.847656 -80.785156 C 33.847656 -90.363281 49.8125 -92.917969 67.851562 -92.917969 C 86.691406 -92.917969 105.847656 -88.289062 117.664062 -81.421875 L 117.664062 -105.050781 C 105.050781 -110.320312 85.09375 -113.992188 66.894531 -113.992188 C 34.484375 -113.992188 8.140625 -102.65625 8.140625 -81.101562 C 8.140625 -34.964844 102.976562 -55.238281 102.976562 -31.929688 C 102.976562 -22.03125 89.085938 -18.679688 68.808594 -18.679688 C 45.820312 -18.679688 23.789062 -23.789062 7.023438 -34.484375 L 5.90625 -9.101562 C 23.308594 -2.234375 49.972656 2.234375 69.289062 2.234375 Z M 69.289062 2.234375 "/></g></g></g></svg>